<?xml version="1.0" encoding="UTF-8" standalone="no"?>
<svg
   xmlns:dc="http://purl.org/dc/elements/1.1/"
   xmlns:cc="http://creativecommons.org/ns#"
   xmlns:rdf="http://www.w3.org/1999/02/22-rdf-syntax-ns#"
   xmlns:svg="http://www.w3.org/2000/svg"
   xmlns="http://www.w3.org/2000/svg"
   xmlns:sodipodi="http://sodipodi.sourceforge.net/DTD/sodipodi-0.dtd"
   xmlns:inkscape="http://www.inkscape.org/namespaces/inkscape"
   width="128.80423mm"
   height="97.694443mm"
   viewBox="0 0 456.39294 346.16141"
   id="svg5899"
   version="1.1"
   inkscape:version="1.0.2 (e86c870879, 2021-01-15)"
   sodipodi:docname="logo.svg">
  <defs
     id="defs5901">
    <rect
       x="1574.298"
       y="1344.7877"
       width="193.14459"
       height="68.369766"
       id="rect19" />
  </defs>
  <sodipodi:namedview
     id="base"
     pagecolor="#ffffff"
     bordercolor="#666666"
     borderopacity="1.0"
     inkscape:pageopacity="0.0"
     inkscape:pageshadow="2"
     inkscape:zoom="1.3712202"
     inkscape:cx="273.33168"
     inkscape:cy="173.62318"
     inkscape:document-units="px"
     inkscape:current-layer="layer1"
     showgrid="false"
     fit-margin-top="0"
     fit-margin-left="0"
     fit-margin-right="0"
     fit-margin-bottom="0"
     inkscape:window-width="1920"
     inkscape:window-height="967"
     inkscape:window-x="0"
     inkscape:window-y="0"
     inkscape:window-maximized="1"
     inkscape:document-rotation="0" />
  <metadata
     id="metadata5904">
    <rdf:RDF>
      <cc:Work
         rdf:about="">
        <dc:format>image/svg+xml</dc:format>
        <dc:type
           rdf:resource="http://purl.org/dc/dcmitype/StillImage" />
        <dc:title />
      </cc:Work>
    </rdf:RDF>
  </metadata>
  <g
     inkscape:label="Layer 1"
     inkscape:groupmode="layer"
     id="layer1"
     transform="translate(-1505.9282,-1212.8341)">
    <g
       id="g6521"
       transform="matrix(0.25733181,0,0,0.25733181,1118.405,1157.8164)">
      <path
         id="path6514"
         d="m 2948.1341,1553.4391 c 9.017,-7.6494 26.0057,-18.642 42.2945,-27.3668 20.0346,-10.7312 32.5066,-19.2179 41,-27.8988 7.9568,-8.1324 1.5341,-3.6223 151.5,-106.3862 36.85,-25.2514 68.0079,-46.8406 69.2398,-47.9759 11.8052,-10.8803 19.3588,-90.9813 24.2575,-257.2349 4.0811,-138.50712 4.0801,-331.57242 0,-471.00002 -3.5998,-122.94052 -8.646,-200.6117 -15.5069,-238.68306 -2.824,-15.67029 -5.6257,-24.12762 -9.2975,-28.06609 -10.3534,-11.10267 -78.5369,-23.67563 -201.6929,-37.19147 -211.7467,-23.23829 -552.0633,-50.94285 -946.5,-77.05287 -154.4647,-10.2249 -242.8647,-16.48295 -288.6448,-20.43389 -28.2094,-2.43453 -57.1032,7.76287 -98.0631,34.60909 -16.4471,10.77988 -31.0402,21.89053 -73.0863,55.64526 -41.8017,33.55854 -63.7849,50.63031 -87.7058,68.11084 -8.8,6.43072 -17.0436,13.12547 -18.3192,14.87721 -14.9659,20.55269 -22.2672,68.58859 -27.1596,178.68498 -6.3339,142.53308 -6.031,321.4237 1.0201,602.50002 1.1176,44.55 2.4317,103.725 2.9202,131.5 0.9968,56.6736 1.2457,58.9074 8.1165,72.846 8.5935,17.4334 25.0123,28.4214 47.9224,32.0714 9.2723,1.4772 62.3521,6.6462 89.7292,8.7379 l 23.2296,1.7749 0.2704,19.5349 0.2704,19.5349 13,1.1759 c 42.7596,3.8677 105.6674,8.4119 281.5,20.3345 339.699,23.0337 733.3972,53.9062 868,68.0657 48.577,5.11 83.2041,10.2433 90.4026,13.4017 1.7036,0.7475 3.4485,1.3958 3.8775,1.4406 0.4291,0.045 3.7705,-2.4552 7.4254,-5.5558 z"
         style="fill:#000000;stroke:none"
         inkscape:connector-curvature="0" />
      <path
         id="path6512"
         d="m 1704.4277,1417.1152 0,9.4356 0,9.4355 3.25,0.5196 c 1.7875,0.2865 29.125,2.5712 60.75,5.0761 31.625,2.5049 79.55,6.3382 106.5,8.5176 26.95,2.1794 85.225,6.8817 129.5,10.4492 44.275,3.5675 100.075,8.0642 124,9.9942 23.925,1.9301 107.625,8.6773 186,14.9922 286.9071,23.1171 529.3423,42.7105 562.5,45.4609 18.7,1.5512 36.3625,2.8772 39.25,2.9492 l 5.25,0.1309 0,-9.2969 0,-9.2949 -40.25,-3.2285 c -41.9038,-3.3605 -67.468,-5.4203 -343.25,-27.6661 -91.85,-7.4091 -236.975,-19.1121 -322.5,-26.0058 -85.525,-6.8938 -183.175,-14.7744 -217,-17.5117 -33.825,-2.7372 -111.9,-9.0119 -173.5,-13.9453 -61.6,-4.9334 -113.9125,-9.2057 -116.25,-9.4922 l -4.25,-0.5196 z m 1238,99.2637 0,7.4121 0,7.4121 7.0625,-6.3125 c 3.8836,-3.4724 6.4711,-6.4211 5.75,-6.5508 -0.721,-0.1297 -3.9,-0.6231 -7.0625,-1.0976 l -5.75,-0.8633 z"
         style="fill:#ffffff;stroke:none"
         inkscape:connector-curvature="0" />
      <path
         id="path6508"
         d="m 2979.4286,1500.6996 c -1.5024,-0.8472 -8.4856,-1.8701 -17.5,-2.5633 -8.25,-0.6344 -16.8,-1.5859 -19,-2.1144 -2.2,-0.5286 -65.875,-5.9022 -141.5,-11.9415 -75.625,-6.0393 -171.025,-13.6749 -212,-16.9681 -40.975,-3.2933 -127.825,-10.2676 -193,-15.4986 -65.175,-5.231 -163.275,-13.1066 -218,-17.5014 -54.725,-4.3948 -153.05,-12.2856 -218.5,-17.5352 -172.0866,-13.8027 -241.9213,-19.4244 -259.5,-20.8896 -8.525,-0.7106 -15.9874,-0.921 -16.583,-0.4676 -0.5957,0.4534 -9.5957,0.3798 -20,-0.1634 -10.4044,-0.5433 -30.842,-1.3986 -45.417,-1.9006 -21.3036,-0.7338 -28.0105,-1.3109 -34.2032,-2.9432 -12.1556,-3.204 -22.2135,-8.629 -29.8656,-16.1085 -7.5219,-7.3523 -8.3398,-9.5192 -11.3338,-30.0277 -8.2635,-56.6039 -13.589,-246.843 -13.5768,-485.00002 0.013,-252.3777 6.1734,-417.81319 16.7248,-449.129 2.2288,-6.61492 4.793,-8.45667 14.7546,-10.59776 7.0018,-1.50493 14.8,-1.72283 62.5,-1.74636 55.2156,-0.0272 67.6482,0.40369 145,5.02586 180.9668,10.81368 392.9727,27.68468 715.5,56.93805 88.6629,8.04177 106.4383,9.69836 226,21.06226 102.9938,9.78919 202.0189,18.7564 241.7645,21.89296 17.4704,1.3787 34.5383,3.22551 37.9286,4.10402 16.3442,4.23522 26.9663,13.90278 31.2589,28.44997 1.8659,6.32328 4.1313,32.21865 5.1476,58.84068 l 0.7001,18.34068 -5.3998,-0.61236 c -2.97,-0.33681 -69.5249,-5.76368 -147.8999,-12.05972 -78.375,-6.29605 -144.6375,-11.70179 -147.25,-12.01276 l -4.75,-0.56541 0,12.95485 0,12.95485 6.25,0.6153 c 5.1928,0.51122 201.4195,15.79513 270.25,21.04952 11,0.83972 21.9125,1.77205 24.25,2.07184 l 4.25,0.54508 0,4.43872 c 0,4.35519 -0.061,4.43744 -3.25,4.37021 -1.7875,-0.0377 -70.3,-5.3268 -152.25,-11.75357 l -149,-11.68505 -0.2819,11.88838 c -0.155,6.5386 -0.025,12.1454 0.2894,12.45955 0.4244,0.4244 296.2374,24.93393 303.2425,25.1251 0.8098,0.0221 1.25,1.61897 1.25,4.53411 0,4.38572 -0.08,4.5 -3.1658,4.5 -1.7413,0 -69.4793,-5.175 -150.5291,-11.5 -81.0497,-6.325 -148.2501,-11.5 -149.3341,-11.5 -1.8562,0 -1.971,0.72803 -1.971,12.5 l 0,12.5 2.5903,0 c 1.4247,0 69.1091,5.4 150.4097,12 81.3006,6.6 148.76,12 149.9097,12 1.8406,0 2.0903,0.59492 2.0903,4.98087 l 0,4.98087 -4.25,-0.5107 c -2.3375,-0.28089 -68.375,-5.6613 -146.75,-11.95647 -78.375,-6.29518 -145.0875,-11.72594 -148.25,-12.06836 l -5.75,-0.62258 0,13.09818 c 0,9.25611 0.3396,13.09819 1.1579,13.09819 0.6368,0 56.7743,4.5211 124.75,10.0468 67.9756,5.5258 135.9671,11.0383 151.0921,12.25 l 27.5,2.2032 0.3098,4.8729 0.3098,4.8729 -6.3098,-0.6446 c -3.4704,-0.3545 -70.2098,-5.7911 -148.3098,-12.0815 -78.1,-6.2903 -143.9125,-11.6719 -146.25,-11.9592 l -4.25,-0.5222 0,12.9089 0,12.9089 5.25,0.575 c 2.8875,0.3162 16.95,1.4714 31.25,2.5671 100.9131,7.732 258.9085,20.0696 263.25,20.5567 l 5.25,0.589 0,4.4281 c 0,3.7498 -0.3039,4.428 -1.9845,4.428 -1.0915,0 -68.5798,-5.4 -149.974,-12 -81.3942,-6.6 -149.1261,-12 -150.5155,-12 l -2.526,0 0,12.4809 c 0,12.1353 0.062,12.4942 2.25,12.9579 1.2375,0.2622 69.7379,5.9212 152.2231,12.5755 82.4852,6.6542 150.1244,12.2498 150.3092,12.4347 0.1848,0.1848 0.1969,2.3107 0.027,4.7242 l -0.3092,4.3881 -64,-5.1977 c -152.008,-12.3452 -239.0515,-19.3781 -239.75,-19.3711 -0.4125,0 -0.75,5.8575 -0.75,13.0075 0,12.5669 0.07,13 2.114,13 1.1626,0 68.6674,5.4 150.0105,12 81.3432,6.6 149.0169,12 150.3861,12 2.3229,0 2.4894,0.3367 2.4894,5.0344 l 0,5.0345 -4.75,-0.5578 c -2.6125,-0.3068 -68.875,-5.7209 -147.25,-12.0313 -78.375,-6.3104 -144.8625,-11.7518 -147.75,-12.0919 l -5.25,-0.6183 0,13.1152 c 0,7.2133 0.3,13.1152 0.6666,13.1152 0.3667,0 64.1542,4.9434 141.75,10.9854 77.5959,6.042 144.4584,11.2348 148.5834,11.5396 14.2784,1.055 14,0.9353 14,6.0203 0,2.4501 -0.471,4.4547 -1.0466,4.4547 -0.5757,0 -27.0132,-2.0308 -58.75,-4.5128 -103.0907,-8.0625 -198.265,-15.4705 -218.2034,-16.9841 -10.725,-0.8142 -21.1875,-1.6676 -23.25,-1.8965 l -3.75,-0.4163 0,12.3595 0,12.3596 3.25,0.5073 c 1.7875,0.279 37.45,3.2424 79.25,6.5853 144.0623,11.521 211.0165,16.9486 216.75,17.5706 l 5.75,0.6238 0,4.4018 c 0,4.0489 -0.204,4.4018 -2.544,4.4018 -1.3991,0 -69.1044,-5.4 -150.456,-12 -81.3516,-6.6 -148.8319,-12 -149.956,-12 -1.9518,0 -2.044,0.5752 -2.044,12.7571 l 0,12.7572 146.75,11.8777 c 80.7125,6.5328 149.3375,12.1046 152.5,12.3818 l 5.75,0.504 0,4.7659 0,4.766 -3.75,-0.4372 c -3.427,-0.3996 -299.0972,-24.3725 -300.598,-24.3725 -0.3587,0 -0.6521,5.85 -0.6521,13 0,11.3569 0.2063,13 1.6322,13 1.3414,0 288.0017,22.2121 299.3678,23.1968 3.4825,0.3017 3.5015,0.3299 3.8059,5.6579 l 0.3059,5.3546 -5.8059,-0.6247 c -6.0653,-0.6526 -41.9463,-3.5746 -196.8059,-16.0269 -51.15,-4.113 -95.1375,-7.7366 -97.75,-8.0524 l -4.75,-0.5742 0,12.4363 0,12.4362 5.75,0.6246 c 5.4983,0.5971 134.9592,11.12342 240.75,19.57502 27.5,2.197 51.9125,4.2476 54.25,4.5569 l 4.25,0.5624 0,4.4388 c 0,3.2143 -0.4007,4.4387 -1.4525,4.4387 -1.9401,0 -297.2787,-23.8677 -300.7975,-24.3088 l -2.75,-0.3448 0,12.8077 c 0,12.4804 0.057,12.8194 2.25,13.2636 1.2375,0.2507 11.7,1.1734 23.25,2.0505 11.55,0.877 56.55,4.488 100,8.0245 123.3129,10.0366 178.4787,14.5073 179.0106,14.5073 0.2692,0 0.4894,2.025 0.4894,4.5 0,4.4107 -0.064,4.5 -3.25,4.4979 -1.7875,0 -69.7792,-5.4011 -151.0927,-12 -81.3136,-6.5988 -148.4761,-11.9979 -149.25,-11.9979 -1.1376,0 -1.4073,2.4919 -1.4073,13 l 0,13 2.8266,0 c 1.5546,0 69.2828,5.4 150.5071,12 81.2243,6.6 148.5773,12 149.6734,12 1.7238,0 1.9929,0.6726 1.9929,4.9809 l 0,4.9808 -4.25,-0.5056 c -2.3375,-0.2781 -34.85,-2.9621 -72.25,-5.9644 -156.6586,-12.576 -217.3255,-17.4991 -222.75,-18.0763 l -5.75,-0.6118 0,13.0982 c 0,7.204 0.3375,13.0923 0.75,13.0851 2.5146,-0.044 300.1699,23.1973 302,23.5803 1.9285,0.4036 2.25,1.1111 2.25,4.9519 0,2.4645 -0.2206,4.4809 -0.4902,4.4809 -1.7478,0 -296.8509,-24.0188 -300.2598,-24.4385 l -4.25,-0.5232 0,12.9196 0,12.9196 4.25,0.5506 c 2.3375,0.3029 68.825,5.7334 147.75,12.0677 78.925,6.3344 145.6375,11.7814 148.25,12.1044 l 4.75,0.5875 0,49.4781 0,49.4781 -5.25,-0.5875 c -2.8875,-0.3231 -22.35,-1.9258 -43.25,-3.5616 -93.5059,-7.3184 -252.4814,-19.9642 -257.25,-20.463 l -5.25,-0.5493 0,41.9368 0,41.9368 5.25,0.5952 c 2.8875,0.3273 70.5,5.745 150.25,12.0392 79.75,6.2942 147.2931,11.7074 150.0958,12.0294 l 5.0958,0.5855 0.6582,15.9653 c 0.362,8.7809 1.3405,23.7196 2.1744,33.1973 0.8339,9.4776 1.9784,22.5508 2.5432,29.0516 2.2888,26.3437 -3.355,46.4124 -16.2723,57.862 -3.4784,3.0832 -3.9499,3.9269 -2.9011,5.1907 1.0532,1.269 0.5648,2.0156 -3.0708,4.6938 -6.3412,4.6713 -18.2644,10.1292 -23.1058,10.5769 -2.4798,0.2292 -5.2474,-0.191 -6.7174,-1.0199 z"
         style="fill:#ffffff;stroke:none"
         inkscape:connector-curvature="0" />
      <path
         id="path6506"
         d="m 2322.4286,1358.0687 c 123.3456,-3.0087 215.2697,-12.9232 287.1605,-30.9717 24.8345,-6.2348 33.497,-10.6521 45.4041,-23.1533 22.4109,-23.5291 34.6622,-59.2617 44.8691,-130.8672 6.6791,-46.8565 8.6684,-77.3842 9.2786,-142.3924 0.9479,-100.97752 -3.6654,-173.63202 -18.2619,-287.60762 -7.4852,-58.44736 -13.6838,-94.5661 -18.1393,-105.69573 -10.5022,-26.23402 -38.3759,-49.71268 -82.3111,-69.33264 -71.0153,-31.71298 -157.2579,-55.61273 -266.5,-73.85307 -51.4185,-8.58545 -159.5032,-21.96766 -202.5,-25.07199 -155.3214,-11.21406 -303.5721,-1.68477 -436.4505,28.05428 -49.3751,11.05045 -58.0869,14.4706 -71.9115,28.23155 -23.8316,23.72185 -35.5677,56.01908 -46.5732,128.1676 -11.7544,77.0577 -14.0389,179.8293 -6.5131,293 5.4992,82.69712 19.9734,195.32512 30.4904,237.25472 4.8323,19.2659 13.8572,34.45 28.8424,48.5264 32.6147,30.6366 83.4011,52.5585 176.6155,76.2357 140.8373,35.7738 336.0747,54.1203 526.5,49.4754 z"
         style="fill:#000000;stroke:none"
         inkscape:connector-curvature="0" />
      <path
         id="path6504"
         d="m 2285.4286,1342.4071 c -104.6426,-3.7948 -197.0485,-12.9642 -300.59,-29.8274 -114.2495,-18.6071 -210.7336,-42.3569 -285.4041,-70.2526 -45.1493,-16.8672 -52.7911,-21.7962 -66.7498,-43.0546 -11.9906,-18.2612 -20.8635,-45.2597 -27.2041,-82.7771 -19.4492,-115.0807 -16.0769,-277.50612 9.4657,-455.91892 5.3601,-37.44047 9.6682,-60.60447 13.0187,-70 4.8352,-13.55891 16.948,-25.98826 34.4636,-35.36421 28.225,-15.10857 75.5199,-24.56319 153,-30.58591 85.4518,-6.64238 201.4177,-4.45845 318.5,5.99817 57.9084,5.1718 157.9717,17.82244 208.9757,26.42003 57.0108,9.61014 153.1914,38.72748 227.0243,68.72843 21.6242,8.78669 26.7762,11.65607 35.1118,19.55553 26.2013,24.83031 39.9329,70.94928 48.3082,162.24796 3.5727,38.9455 4.3782,65.3913 3.7771,124 -0.5761,56.1648 -1.1584,71.11662 -4.7515,122.00002 -5.9503,84.2647 -20.871,197.4915 -28.7613,218.257 -11.1565,29.3615 -53.6097,49.936 -124.1843,60.1846 -33.8981,4.9225 -73.456,8.3806 -115,10.0531 -21.7782,0.8768 -78.7552,1.0701 -99,0.3359 z"
         style="fill:#666666;stroke:none"
         inkscape:connector-curvature="0" />
      <path
         id="path6502"
         d="m 2631.9158,1298.0232 c 0.4666,-0.7957 2.0447,-3.0217 3.5067,-4.9467 15.0304,-19.7894 26.9629,-55.8371 32.9362,-99.5 16.5216,-120.7669 12.0259,-292.06542 -12.0071,-457.50002 -4.3494,-29.94014 -9.8064,-59.38226 -12.6002,-67.98254 -8.6937,-26.76197 -32.8378,-50.40498 -70.8941,-69.42261 -50.8939,-25.43294 -156.306,-53.98914 -256.4287,-69.46666 -121.1235,-18.72396 -239.9201,-27.35602 -378,-27.46645 -55.6951,-0.0445 -57.4026,0.046 -120.5,6.39059 -66.343,6.67094 -120.5916,15.92766 -149.7449,25.55176 -32.3122,10.66692 -55.7851,46.16427 -71.3471,107.89591 -2.357,9.35 -4.3111,16.55 -4.3425,16 -0.278,-4.87813 16.3099,-87.90575 19.5167,-97.68686 4.7758,-14.56684 19.4671,-28.93983 40.0526,-39.18486 31.8096,-15.83105 80.8473,-24.81686 170.3652,-31.21826 30.3506,-2.17035 124.1109,-3.01698 165.3207,-1.49279 101.4912,3.75377 186.3152,10.8968 292.6284,24.64225 67.2553,8.69558 91.7345,12.98774 128.2638,22.48969 55.2275,14.36574 115.7245,33.52735 163.2871,51.71908 42.1064,16.10483 47.3746,18.52174 54.5749,25.03765 24.3729,22.0562 41.3628,77.86534 53.7906,176.6941 8.1387,64.7203 10.5743,107.5917 10.5099,185 -0.067,80.65052 -3.6871,135.62122 -13.4237,203.83852 -9.1557,64.1471 -24.4007,106.4521 -43.1799,119.824 -1.7492,1.2455 -2.7582,1.5919 -2.2846,0.7842 z"
         style="fill:#ffffff;stroke:none"
         inkscape:connector-curvature="0" />
      <path
         id="path6500"
         d="m 3047.8109,1441.3645 c 0.8758,-24.916 2.2829,-86.7708 3.8284,-168.288 1.7057,-89.9694 1.7181,-413.28052 0.018,-476.50002 -4.0023,-148.85049 -7.7579,-214.09205 -14.6551,-254.58308 -3.9572,-23.23069 -7.3224,-31.8091 -14.3313,-36.53243 -14.1251,-9.51891 -82.6763,-21.81932 -185.7426,-33.32851 -215.1554,-24.02595 -515.564,-48.26237 -986,-79.54865 -157.065,-10.44559 -258.1642,-17.83822 -259.2856,-18.95961 -0.3806,-0.38055 -0.147,-0.54565 103.5283,-73.19433 69.4315,-48.65285 80.8837,-56.33811 85,-57.04102 9.5709,-1.63435 98.9686,-0.66994 145.2573,1.56702 270.0782,13.05185 673.1113,44.1921 1031,79.65993 161.812,16.03605 248.2536,27.03427 274.6951,34.95025 6.5166,1.95095 8.5992,4.552 11.8279,14.77272 11.6524,36.88627 15.9552,139.9658 15.8304,379.23771 -0.071,135.4556 -0.9044,213.7148 -3.9048,366.50002 -0.8478,43.175 -1.8906,102.35 -2.3173,131.5 -0.7504,51.2688 -0.8475,53.1834 -2.9746,58.6143 -5.4576,13.9348 -20.4717,30.3697 -44.1567,48.3353 -13.4941,10.2356 -25.8382,18.3201 -64.5,42.2428 -42.8255,26.499 -70.0843,43.6566 -83.389,52.4877 l -10.3891,6.8959 0.6604,-18.788 z"
         style="fill:#ffffff;stroke:none"
         inkscape:connector-curvature="0" />
      <path
         id="path6498"
         d="m 3148.2227,367.8125 c -3.6671,0.2792 -18.1696,10.29216 -73.5274,49.11133 -39.7282,27.85906 -72.2407,51.12562 -72.25,51.70312 -0.01,0.5775 0.502,1.56849 1.1367,2.20313 1.3344,1.33441 -4.7884,5.47714 83.1426,-56.25391 34.471,-24.2 62.6815,-44.50679 62.6895,-45.12695 0.013,-1.02929 -0.1647,-1.71489 -1.1914,-1.63672 z m 71.3164,82.51562 c -1.8915,-0.25034 -8.1818,3.98492 -35.1289,23.0293 -18.9648,13.40304 -47.7575,33.73872 -63.9825,45.18946 -47.8696,33.7838 -46.2338,32.54132 -44.9179,34.12695 0.64,0.77117 1.6042,1.40234 2.1425,1.40234 0.5384,0 26.2452,-17.86051 57.127,-39.6914 30.8818,-21.83089 62.7725,-44.35206 70.8672,-50.04493 8.0947,-5.69288 14.9435,-10.71495 15.2187,-11.16015 0.2751,-0.44521 -0.056,-1.56996 -0.7363,-2.5 -0.138,-0.18879 -0.3196,-0.3158 -0.5898,-0.35157 z"
         style="fill:#000000;stroke:none"
         inkscape:connector-curvature="0" />
      <path
         id="path6494"
         d="m 2731.1777,597.06055 c -0.4125,0.009 -0.75,1.80657 -0.75,3.99609 0,3.32654 0.3699,4.05626 2.25,4.4375 1.2375,0.25093 61.2,5.01538 133.25,10.58789 72.05,5.57251 134.825,10.49004 139.5,10.92774 4.675,0.4377 10.1875,0.85734 12.25,0.93164 3.728,0.13436 3.75,0.11186 3.75,-3.84571 0,-3.32198 -0.3724,-4.05955 -2.25,-4.45312 -1.8489,-0.38756 -285.5873,-22.63543 -288,-22.58203 z m -0.75,33.87109 0,4.38672 0,4.38476 52.25,4.27149 c 28.7375,2.34945 91.85,7.55387 140.25,11.56641 48.4,4.01255 90.3625,7.35011 93.25,7.41601 l 5.25,0.11914 0,-3.92773 0,-3.92774 -5.25,-0.5957 c -4.4802,-0.50795 -96.8297,-8.06559 -238.75,-19.53906 -20.075,-1.62296 -38.8625,-3.22207 -41.75,-3.55274 l -5.25,-0.60156 z m 0.502,35.56445 -0.3125,3.89453 c -0.1722,2.14212 -0.151,4.05596 0.047,4.25391 0.198,0.19795 65.3636,5.72138 144.8125,12.27539 79.449,6.55401 144.7906,11.97131 145.2031,12.03711 0.4125,0.0658 0.75,-2.13086 0.75,-4.88086 0,-4.77413 -0.1242,-5.00244 -2.75,-5.05664 -1.5125,-0.0312 -66.875,-5.11233 -145.25,-11.29101 l -142.5,-11.23243 z m 2.248,35.58789 c -2.5346,-0.007 -2.75,0.29963 -2.75,3.91993 l 0,3.92773 5.25,0.59375 c 2.8875,0.32629 48.45,3.9665 101.25,8.08789 52.8,4.1213 114.675,9.00938 137.5,10.86328 22.825,1.854 42.7375,3.42333 44.25,3.48633 2.5898,0.1078 2.75,-0.13682 2.75,-4.16992 l 0,-4.28125 -61.25,-4.77734 c -33.6875,-2.62662 -97.925,-7.6703 -142.75,-11.20899 -44.825,-3.53869 -82.7375,-6.43741 -84.25,-6.44141 z m -2.4082,33.99219 c -0.1873,0 -0.3418,1.91937 -0.3418,4.26367 l 0,4.26172 47.75,3.84961 c 26.2625,2.1171 89.825,7.34324 141.25,11.61524 51.425,4.272 95.4125,7.82167 97.75,7.88867 l 4.25,0.12109 0,-3.95508 c 0,-3.6877 -0.2194,-3.98896 -3.25,-4.47656 -1.7875,-0.2877 -23.05,-2.10677 -47.25,-4.04297 -24.2,-1.9361 -88.058,-7.12233 -141.9082,-11.52344 -53.8503,-4.4012 -98.0628,-8.00195 -98.25,-8.00195 z m -0.3418,35.09375 0,4.45313 c 0,4.3458 0.078,4.45381 3.25,4.50781 1.7875,0.0304 64.675,5.15361 139.75,11.38281 75.075,6.2291 139.0875,11.37736 142.25,11.44336 l 5.75,0.11914 0,-3.90234 0,-3.90039 -5.75,-0.625 c -3.1625,-0.3439 -66.5,-5.54158 -140.75,-11.55078 -74.25,-6.0092 -137.1375,-11.15274 -139.75,-11.42774 l -4.75,-0.5 z m 0.5,35.38672 -0.3125,3.86328 c -0.1716,2.1252 -0.1359,4.03981 0.078,4.25391 0.2141,0.2141 60.6546,5.12501 134.3125,10.91211 73.6578,5.787 138.1968,10.90314 143.4218,11.36914 5.225,0.4659 10.2875,0.90837 11.25,0.98437 1.4278,0.1122 1.75,-0.69188 1.75,-4.36328 0,-4.4 -0.072,-4.49983 -3.25,-4.54883 -1.7875,-0.0275 -67.15,-5.09632 -145.25,-11.26172 l -142,-11.20898 z m 1.3868,34.57813 c -1.7692,0.0679 -1.8868,0.71544 -1.8868,4.39648 0,4.2546 0.146,4.47814 3.25,4.96484 1.7875,0.2803 65.8,5.42028 142.25,11.42188 76.45,6.0016 140.4895,10.96716 142.3086,11.03515 3.2891,0.123 3.3058,0.0994 3,-4.12695 l -0.3086,-4.25 -142.5,-11.6914 c -78.375,-6.4308 -143.7375,-11.718 -145.25,-11.75 -0.3246,-0.007 -0.6105,-0.01 -0.8632,0 z m -1.8868,34.71093 0,4.38477 0,4.38281 140.75,11.60352 c 77.4125,6.3818 142.8875,11.66142 145.5,11.73242 l 4.75,0.12695 0,-3.9375 c 0,-3.8783 -0.065,-3.94836 -4.25,-4.50586 -2.3375,-0.3114 -65.45,-5.51811 -140.25,-11.57031 -74.8,-6.0521 -138.3625,-11.27577 -141.25,-11.60938 l -5.25,-0.60742 z m 0,35.26953 0,4.48047 c 0,4.2067 0.1683,4.48497 2.75,4.54297 1.5125,0.0338 64.175,5.15742 139.25,11.38672 75.075,6.2294 139.3125,11.37745 142.75,11.43945 l 6.25,0.11133 0,-4.5 c 0,-3.4321 -0.3727,-4.5 -1.5761,-4.5 -0.8679,0 -6.8304,-0.45798 -13.25,-1.01758 -6.4197,-0.5596 -69.2739,-5.49128 -139.6739,-10.95898 -70.4,-5.4677 -129.9125,-10.17569 -132.25,-10.46289 l -4.25,-0.52149 z m 2.9239,35.96094 c -2.7433,0 -2.9239,0.2457 -2.9239,4 0,2.2 0.3375,4.01992 0.75,4.04492 0.4125,0.0248 65.1,5.15208 143.75,11.39258 78.65,6.2405 143.7875,11.39508 144.75,11.45508 1.4135,0.0876 1.75,-0.72314 1.75,-4.21484 l 0,-4.32227 -21.25,-1.66992 c -191.5542,-15.0375 -264.4134,-20.68555 -266.8261,-20.68555 z m -2.9239,33.71485 0,4.14257 c 0,2.2784 0.1125,4.18624 0.25,4.24024 0.1375,0.0536 63.925,5.39863 141.75,11.87697 77.825,6.4782 143.1875,11.8343 145.25,11.9023 3.726,0.123 3.75,0.098 3.75,-3.8574 0,-3.3226 -0.3721,-4.0593 -2.25,-4.4512 -1.2375,-0.2583 -64.125,-5.47191 -139.75,-11.58591 -75.625,-6.1141 -140.0875,-11.3749 -143.25,-11.6914 l -5.75,-0.57617 z m 0,35.14058 0,4.5723 c 0,4.2557 0.1804,4.5723 2.5977,4.5723 2.2076,0 63.7108,4.7711 225.9023,17.5254 17.6,1.384 36.275,2.8966 41.5,3.3593 5.225,0.4628 12.0875,0.9026 15.25,0.9786 l 5.75,0.1367 0,-3.4278 c 0,-3.3921 -0.055,-3.4353 -5.25,-4.0332 -2.8875,-0.3323 -66,-5.5226 -140.25,-11.5351 -74.25,-6.0125 -137.3625,-11.2047 -140.25,-11.5391 l -5.25,-0.6094 z m 0,35.336 0,4.4043 c 0,3.8869 0.2645,4.4101 2.25,4.4531 1.2375,0.027 66.15,5.1472 144.25,11.3789 78.1,6.2318 142.5625,11.3842 143.25,11.4512 0.8328,0.081 1.25,-1.381 1.25,-4.3789 0,-3.2937 -0.3941,-4.5 -1.4707,-4.5 -2.1952,0 -281.4197,-21.8541 -285.7793,-22.3672 l -3.75,-0.4414 z m 0.75,34.7636 c -0.6574,0.04 -1.1459,7.9553 -0.5,8.1016 0.1375,0.031 64.375,5.3747 142.75,11.875 78.375,6.5003 143.7375,11.8754 145.25,11.9434 2.5905,0.1175 2.75,-0.1221 2.75,-4.1485 l 0,-4.2754 -144.75,-11.7714 c -79.6125,-6.4742 -145.0875,-11.7497 -145.5,-11.7247 z m -0.2988,35.045 c -0.311,0 -0.4269,1.9125 -0.2578,4.25 l 0.3066,4.25 141,11.623 c 77.55,6.3929 142.9125,11.68 145.25,11.75 l 4.25,0.127 0,-3.9551 c 0,-4.754 1.6502,-4.3397 -26,-6.5273 -10.725,-0.8487 -74.5071,-6.0361 -141.7402,-11.5293 -67.2331,-5.4931 -122.4975,-9.9883 -122.8086,-9.9883 z m 5.2988,137.6562 c -0.4125,0.2541 -0.75,10.1099 -0.75,21.9024 l 0,21.4414 2.25,0.057 c 1.2375,0.031 46.35,3.5888 100.25,7.9063 53.9,4.3175 99.575,7.7793 101.5,7.6933 l 3.5,-0.1562 0.2715,-21.2735 c 0.2093,-16.4958 -0.015,-21.372 -1,-21.7089 -2.1119,-0.7225 -205.2136,-16.3591 -206.0215,-15.8614 z m 227.25,17.4375 0,21.9531 0,21.9532 2.25,0.086 c 1.2375,0.047 12.15,0.8878 24.25,1.8691 12.1,0.9814 22.7875,1.8421 23.75,1.9141 1.6176,0.1203 1.75,-1.5338 1.75,-21.8691 0,-14.4521 -0.3534,-22 -1.0312,-22 -1.7182,0 -41.1243,-2.9275 -46.2188,-3.4336 l -4.75,-0.4727 z"
         style="fill:#ffffff;stroke:none"
         inkscape:connector-curvature="0" />
    </g>
    <text
       xml:space="preserve"
       id="text17"
       style="font-style:normal;font-weight:normal;font-size:37.5px;line-height:1.25;font-family:sans-serif;white-space:pre;shape-inside:url(#rect19);fill:#000000;fill-opacity:1;stroke:none;"
       transform="matrix(0.45365451,-0.30855812,0.40713695,0.5032418,640.90245,1135.8093)"><tspan
         x="1574.2988"
         y="1377.9658"><tspan>oerc</tspan></tspan></text>
  </g>
</svg>
